<?xml version="1.0" encoding="utf-8"?>
<!-- Svg Vector Icons : http://www.onlinewebfonts.com/icon -->
<!DOCTYPE svg PUBLIC "-//W3C//DTD SVG 1.1//EN" "http://www.w3.org/Graphics/SVG/1.1/DTD/svg11.dtd">
<svg version="1.1" xmlns="http://www.w3.org/2000/svg" xmlns:xlink="http://www.w3.org/1999/xlink" x="0px" y="0px" viewBox="0 0 1000 1000" enable-background="new 0 0 1000 1000" xml:space="preserve">
<metadata> Svg Vector Icons : http://www.onlinewebfonts.com/icon </metadata>
<g><path d="M938.1,984.8H700.7c-28.6,0-51.9-23.3-51.9-51.9V655c0-8.8-7.2-16-16-16H367.2c-8.8,0-16,7.2-16,16v277.9c0,28.6-23.3,51.9-51.9,51.9H61.9c-28.6,0-51.9-23.3-51.9-51.9V523.1c0-23.6,12.6-54,29.3-70.6L463.7,29.8c19.6-19.5,53.9-19.5,73.4,0l423.5,422.7c16.7,16.7,29.3,47,29.3,70.6v409.8C990,961.5,966.7,984.8,938.1,984.8z M367.2,603.1h265.6c28.6,0,51.9,23.3,51.9,51.9v277.9c0,8.8,7.2,16,16,16h237.4c8.8,0,16-7.2,16-16V523.1c0-13.9-8.9-35.4-18.8-45.2L511.8,55.2c-6-6-16.7-6-22.7,0L64.7,477.9c-9.8,9.8-18.8,31.3-18.8,45.2v409.8c0,8.8,7.2,16,16,16h237.4c8.8,0,16-7.2,16-16V655C315.3,626.4,338.5,603.1,367.2,603.1z"/></g>
</svg>